<mxfile host="app.diagrams.net" modified="2024-05-22T16:01:32.146Z" agent="Mozilla/5.0 (Windows NT 10.0; Win64; x64) AppleWebKit/537.36 (KHTML, like Gecko) Chrome/124.0.0.0 Safari/537.36" etag="dFc_8whEPe3YxsWULT6a" version="24.4.5" type="github">
  <diagram name="第 1 页" id="M_x8-9DKoYfC3ThnBNaP">
    <mxGraphModel dx="794" dy="420" grid="1" gridSize="10" guides="1" tooltips="1" connect="1" arrows="1" fold="1" page="1" pageScale="1" pageWidth="827" pageHeight="1169" math="0" shadow="0">
      <root>
        <mxCell id="0" />
        <mxCell id="1" parent="0" />
        <mxCell id="aGrZsIu07CaAuVC8-_KM-38" value="group" style="rounded=0;whiteSpace=wrap;html=1;align=center;verticalAlign=middle;fillColor=#ffff88;strokeColor=#36393d;" vertex="1" parent="1">
          <mxGeometry x="365" y="990" width="375" height="70" as="geometry" />
        </mxCell>
        <mxCell id="SnEAZ-Wm8pNj-YNNooDd-13" value="brocker-2&lt;div&gt;JVM&lt;/div&gt;" style="rounded=0;whiteSpace=wrap;html=1;align=center;verticalAlign=top;horizontal=1;fillColor=#fff2cc;strokeColor=#d6b656;" parent="1" vertex="1">
          <mxGeometry x="260" y="300" width="380" height="170" as="geometry" />
        </mxCell>
        <mxCell id="SnEAZ-Wm8pNj-YNNooDd-12" value="brocker-1&lt;div&gt;JVM&lt;/div&gt;" style="rounded=0;whiteSpace=wrap;html=1;align=center;verticalAlign=top;horizontal=1;fillColor=#fff2cc;strokeColor=#d6b656;" parent="1" vertex="1">
          <mxGeometry x="260" y="120" width="380" height="160" as="geometry" />
        </mxCell>
        <mxCell id="SnEAZ-Wm8pNj-YNNooDd-2" value="producer" style="rounded=0;whiteSpace=wrap;html=1;fillColor=#d5e8d4;strokeColor=#82b366;" parent="1" vertex="1">
          <mxGeometry x="80" y="194" width="90" height="40" as="geometry" />
        </mxCell>
        <mxCell id="SnEAZ-Wm8pNj-YNNooDd-28" style="edgeStyle=orthogonalEdgeStyle;rounded=0;orthogonalLoop=1;jettySize=auto;html=1;entryX=0;entryY=0.5;entryDx=0;entryDy=0;curved=1;" parent="1" source="SnEAZ-Wm8pNj-YNNooDd-3" target="SnEAZ-Wm8pNj-YNNooDd-15" edge="1">
          <mxGeometry relative="1" as="geometry" />
        </mxCell>
        <mxCell id="SnEAZ-Wm8pNj-YNNooDd-29" style="edgeStyle=orthogonalEdgeStyle;rounded=0;orthogonalLoop=1;jettySize=auto;html=1;entryX=0;entryY=0.5;entryDx=0;entryDy=0;curved=1;" parent="1" source="SnEAZ-Wm8pNj-YNNooDd-3" target="SnEAZ-Wm8pNj-YNNooDd-16" edge="1">
          <mxGeometry relative="1" as="geometry" />
        </mxCell>
        <mxCell id="SnEAZ-Wm8pNj-YNNooDd-3" value="producer" style="rounded=0;whiteSpace=wrap;html=1;fillColor=#d5e8d4;strokeColor=#82b366;" parent="1" vertex="1">
          <mxGeometry x="80" y="260" width="90" height="40" as="geometry" />
        </mxCell>
        <mxCell id="SnEAZ-Wm8pNj-YNNooDd-4" value="producer" style="rounded=0;whiteSpace=wrap;html=1;fillColor=#d5e8d4;strokeColor=#82b366;" parent="1" vertex="1">
          <mxGeometry x="80" y="320" width="90" height="40" as="geometry" />
        </mxCell>
        <mxCell id="SnEAZ-Wm8pNj-YNNooDd-20" style="edgeStyle=orthogonalEdgeStyle;rounded=0;orthogonalLoop=1;jettySize=auto;html=1;exitX=0.5;exitY=0;exitDx=0;exitDy=0;entryX=0.5;entryY=1;entryDx=0;entryDy=0;curved=1;" parent="1" source="SnEAZ-Wm8pNj-YNNooDd-12" target="SnEAZ-Wm8pNj-YNNooDd-19" edge="1">
          <mxGeometry relative="1" as="geometry" />
        </mxCell>
        <mxCell id="SnEAZ-Wm8pNj-YNNooDd-14" value="topic" style="rounded=0;whiteSpace=wrap;html=1;dashed=1;verticalAlign=top;" parent="1" vertex="1">
          <mxGeometry x="365" y="175" width="120" height="210" as="geometry" />
        </mxCell>
        <mxCell id="SnEAZ-Wm8pNj-YNNooDd-15" value="P0" style="rounded=0;whiteSpace=wrap;html=1;align=center;verticalAlign=middle;" parent="1" vertex="1">
          <mxGeometry x="340" y="220" width="50" height="30" as="geometry" />
        </mxCell>
        <mxCell id="SnEAZ-Wm8pNj-YNNooDd-16" value="P1" style="rounded=0;whiteSpace=wrap;html=1;align=center;verticalAlign=middle;" parent="1" vertex="1">
          <mxGeometry x="340" y="320" width="50" height="30" as="geometry" />
        </mxCell>
        <mxCell id="SnEAZ-Wm8pNj-YNNooDd-17" value="P1" style="rounded=0;whiteSpace=wrap;html=1;align=center;verticalAlign=middle;dashed=1;" parent="1" vertex="1">
          <mxGeometry x="430" y="200" width="50" height="30" as="geometry" />
        </mxCell>
        <mxCell id="SnEAZ-Wm8pNj-YNNooDd-18" value="P0" style="rounded=0;whiteSpace=wrap;html=1;align=center;verticalAlign=middle;dashed=1;" parent="1" vertex="1">
          <mxGeometry x="430" y="340" width="50" height="30" as="geometry" />
        </mxCell>
        <mxCell id="SnEAZ-Wm8pNj-YNNooDd-19" value="zookeeper(分布式协调，不是存储)" style="rounded=0;whiteSpace=wrap;html=1;fillColor=#ffcccc;strokeColor=#36393d;" parent="1" vertex="1">
          <mxGeometry x="160" y="30" width="560" height="40" as="geometry" />
        </mxCell>
        <mxCell id="SnEAZ-Wm8pNj-YNNooDd-23" style="edgeStyle=orthogonalEdgeStyle;rounded=0;orthogonalLoop=1;jettySize=auto;html=1;entryX=0;entryY=0.5;entryDx=0;entryDy=0;curved=1;" parent="1" source="SnEAZ-Wm8pNj-YNNooDd-21" target="SnEAZ-Wm8pNj-YNNooDd-19" edge="1">
          <mxGeometry relative="1" as="geometry" />
        </mxCell>
        <mxCell id="SnEAZ-Wm8pNj-YNNooDd-21" value="admin-api" style="rounded=0;whiteSpace=wrap;html=1;align=center;verticalAlign=middle;fillColor=#cce5ff;strokeColor=#36393d;" parent="1" vertex="1">
          <mxGeometry x="5" y="110" width="75" height="40" as="geometry" />
        </mxCell>
        <mxCell id="SnEAZ-Wm8pNj-YNNooDd-24" style="edgeStyle=orthogonalEdgeStyle;rounded=0;orthogonalLoop=1;jettySize=auto;html=1;entryX=0;entryY=0.5;entryDx=0;entryDy=0;curved=1;" parent="1" source="SnEAZ-Wm8pNj-YNNooDd-2" target="SnEAZ-Wm8pNj-YNNooDd-15" edge="1">
          <mxGeometry relative="1" as="geometry" />
        </mxCell>
        <mxCell id="SnEAZ-Wm8pNj-YNNooDd-25" style="edgeStyle=orthogonalEdgeStyle;rounded=0;orthogonalLoop=1;jettySize=auto;html=1;curved=1;" parent="1" source="SnEAZ-Wm8pNj-YNNooDd-4" target="SnEAZ-Wm8pNj-YNNooDd-16" edge="1">
          <mxGeometry relative="1" as="geometry" />
        </mxCell>
        <mxCell id="SnEAZ-Wm8pNj-YNNooDd-26" style="edgeStyle=orthogonalEdgeStyle;rounded=0;orthogonalLoop=1;jettySize=auto;html=1;entryX=0;entryY=0.5;entryDx=0;entryDy=0;curved=1;" parent="1" source="SnEAZ-Wm8pNj-YNNooDd-4" target="SnEAZ-Wm8pNj-YNNooDd-15" edge="1">
          <mxGeometry relative="1" as="geometry" />
        </mxCell>
        <mxCell id="SnEAZ-Wm8pNj-YNNooDd-30" value="metadata" style="shape=note;whiteSpace=wrap;html=1;backgroundOutline=1;darkOpacity=0.05;fillColor=#cdeb8b;strokeColor=#36393d;" parent="1" vertex="1">
          <mxGeometry x="540" y="140" width="80" height="50" as="geometry" />
        </mxCell>
        <mxCell id="SnEAZ-Wm8pNj-YNNooDd-31" value="metadata" style="shape=note;whiteSpace=wrap;html=1;backgroundOutline=1;darkOpacity=0.05;fillColor=#cdeb8b;strokeColor=#36393d;" parent="1" vertex="1">
          <mxGeometry x="540" y="400" width="80" height="60" as="geometry" />
        </mxCell>
        <mxCell id="SnEAZ-Wm8pNj-YNNooDd-33" value="" style="endArrow=classic;startArrow=classic;html=1;rounded=0;entryX=0.5;entryY=1;entryDx=0;entryDy=0;entryPerimeter=0;exitX=0.5;exitY=0;exitDx=0;exitDy=0;exitPerimeter=0;" parent="1" source="SnEAZ-Wm8pNj-YNNooDd-31" target="SnEAZ-Wm8pNj-YNNooDd-30" edge="1">
          <mxGeometry width="50" height="50" relative="1" as="geometry">
            <mxPoint x="540" y="310" as="sourcePoint" />
            <mxPoint x="590" y="260" as="targetPoint" />
          </mxGeometry>
        </mxCell>
        <mxCell id="SnEAZ-Wm8pNj-YNNooDd-35" value="topic里面自己维护了offset，之前版本是通过第三方存储进行维护的" style="shape=note;whiteSpace=wrap;html=1;backgroundOutline=1;darkOpacity=0.05;fillColor=#fff2cc;strokeColor=#d6b656;horizontal=1;align=center;verticalAlign=middle;" parent="1" vertex="1">
          <mxGeometry x="657" y="370" width="163" height="100" as="geometry" />
        </mxCell>
        <mxCell id="aGrZsIu07CaAuVC8-_KM-1" value="group" style="rounded=0;whiteSpace=wrap;html=1;align=center;verticalAlign=top;fillColor=#dae8fc;strokeColor=#6c8ebf;" vertex="1" parent="1">
          <mxGeometry x="657" y="200" width="170" height="150" as="geometry" />
        </mxCell>
        <mxCell id="aGrZsIu07CaAuVC8-_KM-2" value="cusumer" style="rounded=0;whiteSpace=wrap;html=1;align=center;verticalAlign=middle;fillColor=#f8cecc;strokeColor=#b85450;" vertex="1" parent="1">
          <mxGeometry x="682" y="235" width="125" height="40" as="geometry" />
        </mxCell>
        <mxCell id="aGrZsIu07CaAuVC8-_KM-3" value="cusumer" style="rounded=0;whiteSpace=wrap;html=1;align=center;verticalAlign=middle;fillColor=#f8cecc;strokeColor=#b85450;" vertex="1" parent="1">
          <mxGeometry x="682" y="294" width="125" height="40" as="geometry" />
        </mxCell>
        <mxCell id="aGrZsIu07CaAuVC8-_KM-6" style="rounded=0;orthogonalLoop=1;jettySize=auto;html=1;exitX=1;exitY=0.5;exitDx=0;exitDy=0;entryX=0;entryY=0.5;entryDx=0;entryDy=0;" edge="1" parent="1" source="SnEAZ-Wm8pNj-YNNooDd-16" target="aGrZsIu07CaAuVC8-_KM-3">
          <mxGeometry relative="1" as="geometry" />
        </mxCell>
        <mxCell id="aGrZsIu07CaAuVC8-_KM-4" style="rounded=1;orthogonalLoop=1;jettySize=auto;html=1;entryX=0;entryY=0.5;entryDx=0;entryDy=0;curved=0;" edge="1" parent="1" source="SnEAZ-Wm8pNj-YNNooDd-15" target="aGrZsIu07CaAuVC8-_KM-2">
          <mxGeometry relative="1" as="geometry" />
        </mxCell>
        <mxCell id="aGrZsIu07CaAuVC8-_KM-7" value="controller" style="rounded=1;whiteSpace=wrap;html=1;fillColor=#f0a30a;fontColor=#000000;strokeColor=#BD7000;" vertex="1" parent="1">
          <mxGeometry x="280" y="135" width="80" height="40" as="geometry" />
        </mxCell>
        <mxCell id="aGrZsIu07CaAuVC8-_KM-8" value="node01" style="rounded=0;whiteSpace=wrap;html=1;align=center;verticalAlign=top;" vertex="1" parent="1">
          <mxGeometry x="110" y="610" width="150" height="290" as="geometry" />
        </mxCell>
        <mxCell id="aGrZsIu07CaAuVC8-_KM-9" value="node02" style="rounded=0;whiteSpace=wrap;html=1;align=center;verticalAlign=top;" vertex="1" parent="1">
          <mxGeometry x="275" y="610" width="150" height="290" as="geometry" />
        </mxCell>
        <mxCell id="aGrZsIu07CaAuVC8-_KM-10" value="node03" style="rounded=0;whiteSpace=wrap;html=1;align=center;verticalAlign=top;" vertex="1" parent="1">
          <mxGeometry x="450" y="610" width="150" height="290" as="geometry" />
        </mxCell>
        <mxCell id="aGrZsIu07CaAuVC8-_KM-11" value="node04" style="rounded=0;whiteSpace=wrap;html=1;align=center;verticalAlign=top;" vertex="1" parent="1">
          <mxGeometry x="610" y="610" width="150" height="290" as="geometry" />
        </mxCell>
        <mxCell id="aGrZsIu07CaAuVC8-_KM-20" style="edgeStyle=orthogonalEdgeStyle;rounded=0;orthogonalLoop=1;jettySize=auto;html=1;curved=1;strokeColor=default;dashed=1;" edge="1" parent="1" source="aGrZsIu07CaAuVC8-_KM-12" target="aGrZsIu07CaAuVC8-_KM-15">
          <mxGeometry relative="1" as="geometry" />
        </mxCell>
        <mxCell id="aGrZsIu07CaAuVC8-_KM-12" value="zk" style="ellipse;whiteSpace=wrap;html=1;" vertex="1" parent="1">
          <mxGeometry x="340" y="650" width="80" height="30" as="geometry" />
        </mxCell>
        <mxCell id="aGrZsIu07CaAuVC8-_KM-13" value="zk" style="ellipse;whiteSpace=wrap;html=1;" vertex="1" parent="1">
          <mxGeometry x="510" y="650" width="80" height="30" as="geometry" />
        </mxCell>
        <mxCell id="aGrZsIu07CaAuVC8-_KM-14" value="zk" style="ellipse;whiteSpace=wrap;html=1;" vertex="1" parent="1">
          <mxGeometry x="670" y="650" width="80" height="30" as="geometry" />
        </mxCell>
        <mxCell id="aGrZsIu07CaAuVC8-_KM-15" value="kafka-broker0&lt;div&gt;controller&lt;/div&gt;" style="ellipse;whiteSpace=wrap;html=1;" vertex="1" parent="1">
          <mxGeometry x="130" y="840" width="80" height="50" as="geometry" />
        </mxCell>
        <mxCell id="aGrZsIu07CaAuVC8-_KM-16" value="kafka-broker1" style="ellipse;whiteSpace=wrap;html=1;" vertex="1" parent="1">
          <mxGeometry x="290" y="840" width="80" height="50" as="geometry" />
        </mxCell>
        <mxCell id="aGrZsIu07CaAuVC8-_KM-17" value="kafka-broker2" style="ellipse;whiteSpace=wrap;html=1;" vertex="1" parent="1">
          <mxGeometry x="460" y="840" width="80" height="50" as="geometry" />
        </mxCell>
        <mxCell id="aGrZsIu07CaAuVC8-_KM-19" style="rounded=0;orthogonalLoop=1;jettySize=auto;html=1;edgeStyle=orthogonalEdgeStyle;curved=1;" edge="1" parent="1" source="aGrZsIu07CaAuVC8-_KM-18" target="aGrZsIu07CaAuVC8-_KM-12">
          <mxGeometry relative="1" as="geometry" />
        </mxCell>
        <mxCell id="aGrZsIu07CaAuVC8-_KM-18" value="client --topic" style="rounded=0;whiteSpace=wrap;html=1;align=center;verticalAlign=middle;" vertex="1" parent="1">
          <mxGeometry x="450" y="520" width="75" height="40" as="geometry" />
        </mxCell>
        <mxCell id="aGrZsIu07CaAuVC8-_KM-21" value="topic: ooxx" style="rounded=0;whiteSpace=wrap;html=1;align=center;verticalAlign=middle;fillColor=#f0a30a;strokeColor=#BD7000;fontColor=#000000;" vertex="1" parent="1">
          <mxGeometry x="190" y="720" width="350" height="70" as="geometry" />
        </mxCell>
        <mxCell id="aGrZsIu07CaAuVC8-_KM-33" style="edgeStyle=orthogonalEdgeStyle;rounded=0;orthogonalLoop=1;jettySize=auto;html=1;entryX=0.5;entryY=0;entryDx=0;entryDy=0;curved=1;fillColor=#e51400;strokeColor=#B20000;" edge="1" parent="1" source="aGrZsIu07CaAuVC8-_KM-22" target="aGrZsIu07CaAuVC8-_KM-31">
          <mxGeometry relative="1" as="geometry">
            <Array as="points">
              <mxPoint x="390" y="912" />
              <mxPoint x="445" y="912" />
            </Array>
          </mxGeometry>
        </mxCell>
        <mxCell id="aGrZsIu07CaAuVC8-_KM-22" value="P0" style="rounded=0;whiteSpace=wrap;html=1;align=center;verticalAlign=middle;fillColor=#d5e8d4;strokeColor=#82b366;" vertex="1" parent="1">
          <mxGeometry x="339" y="780" width="75" height="40" as="geometry" />
        </mxCell>
        <mxCell id="aGrZsIu07CaAuVC8-_KM-35" style="edgeStyle=orthogonalEdgeStyle;rounded=0;orthogonalLoop=1;jettySize=auto;html=1;entryX=0.5;entryY=0;entryDx=0;entryDy=0;curved=1;fillColor=#e51400;strokeColor=#B20000;" edge="1" parent="1" source="aGrZsIu07CaAuVC8-_KM-23" target="aGrZsIu07CaAuVC8-_KM-34">
          <mxGeometry relative="1" as="geometry" />
        </mxCell>
        <mxCell id="aGrZsIu07CaAuVC8-_KM-23" value="P1" style="rounded=0;whiteSpace=wrap;html=1;align=center;verticalAlign=middle;fillColor=#dae8fc;strokeColor=#6c8ebf;" vertex="1" parent="1">
          <mxGeometry x="485" y="780" width="75" height="40" as="geometry" />
        </mxCell>
        <mxCell id="aGrZsIu07CaAuVC8-_KM-26" style="edgeStyle=orthogonalEdgeStyle;rounded=0;orthogonalLoop=1;jettySize=auto;html=1;entryX=0;entryY=0.5;entryDx=0;entryDy=0;curved=1;exitX=0.5;exitY=0;exitDx=0;exitDy=0;" edge="1" parent="1" source="aGrZsIu07CaAuVC8-_KM-24" target="aGrZsIu07CaAuVC8-_KM-22">
          <mxGeometry relative="1" as="geometry" />
        </mxCell>
        <mxCell id="aGrZsIu07CaAuVC8-_KM-27" style="edgeStyle=orthogonalEdgeStyle;rounded=0;orthogonalLoop=1;jettySize=auto;html=1;entryX=0;entryY=0.5;entryDx=0;entryDy=0;curved=1;exitX=0.5;exitY=0;exitDx=0;exitDy=0;" edge="1" parent="1" source="aGrZsIu07CaAuVC8-_KM-24" target="aGrZsIu07CaAuVC8-_KM-23">
          <mxGeometry relative="1" as="geometry" />
        </mxCell>
        <mxCell id="aGrZsIu07CaAuVC8-_KM-24" value="producer&lt;div&gt;topic&lt;/div&gt;&lt;div&gt;ps&lt;/div&gt;" style="ellipse;whiteSpace=wrap;html=1;" vertex="1" parent="1">
          <mxGeometry x="170" y="1000" width="120" height="50" as="geometry" />
        </mxCell>
        <mxCell id="aGrZsIu07CaAuVC8-_KM-25" value="1,2,3,4,5,6,7,8" style="shape=note;whiteSpace=wrap;html=1;backgroundOutline=1;darkOpacity=0.05;fillColor=#fff2cc;strokeColor=none;horizontal=1;align=left;verticalAlign=top;size=15;" vertex="1" parent="1">
          <mxGeometry x="110" y="960" width="80" height="40" as="geometry" />
        </mxCell>
        <mxCell id="aGrZsIu07CaAuVC8-_KM-28" value="1,3,5,7" style="shape=note;whiteSpace=wrap;html=1;backgroundOutline=1;darkOpacity=0.05;fillColor=#fff2cc;strokeColor=none;horizontal=1;align=left;verticalAlign=top;size=15;" vertex="1" parent="1">
          <mxGeometry x="397" y="810" width="56" height="40" as="geometry" />
        </mxCell>
        <mxCell id="aGrZsIu07CaAuVC8-_KM-30" value="2,4,6,8" style="shape=note;whiteSpace=wrap;html=1;backgroundOutline=1;darkOpacity=0.05;fillColor=#fff2cc;strokeColor=none;horizontal=1;align=left;verticalAlign=top;size=15;" vertex="1" parent="1">
          <mxGeometry x="525" y="810" width="56" height="40" as="geometry" />
        </mxCell>
        <mxCell id="aGrZsIu07CaAuVC8-_KM-31" value="consumer1" style="ellipse;whiteSpace=wrap;html=1;" vertex="1" parent="1">
          <mxGeometry x="390" y="1005" width="110" height="45" as="geometry" />
        </mxCell>
        <mxCell id="aGrZsIu07CaAuVC8-_KM-34" value="consumer2" style="ellipse;whiteSpace=wrap;html=1;" vertex="1" parent="1">
          <mxGeometry x="572" y="1005" width="110" height="45" as="geometry" />
        </mxCell>
        <mxCell id="aGrZsIu07CaAuVC8-_KM-37" value="&lt;h1 style=&quot;margin-top: 0px;&quot;&gt;小记&lt;/h1&gt;&lt;div&gt;一个partition不会分到两个comsumer;&lt;/div&gt;&lt;div&gt;但是两个partition可以分给一个comsumer&lt;/div&gt;" style="text;html=1;whiteSpace=wrap;overflow=hidden;rounded=0;" vertex="1" parent="1">
          <mxGeometry x="5" y="1080" width="365" height="80" as="geometry" />
        </mxCell>
        <mxCell id="aGrZsIu07CaAuVC8-_KM-39" value="如果没有顺序上的约束的话：水平扩展&lt;div&gt;消息(V)&lt;/div&gt;&lt;div&gt;&lt;br&gt;&lt;/div&gt;&lt;div&gt;一旦消息（消息很多，但是消息种类一定多）而且需要同一类消息的有序性，&lt;span style=&quot;background-color: initial;&quot;&gt;消息（K，V）相同的key一定会去到一个分区里，broker会保证producer推送消息的顺序性&lt;/span&gt;&lt;/div&gt;&lt;div&gt;&lt;span style=&quot;background-color: initial;&quot;&gt;一个分区可能有不同的Key,相同的Key在一个分区里没有排列在一起&lt;/span&gt;&lt;/div&gt;&lt;div&gt;&lt;span style=&quot;background-color: initial;&quot;&gt;&lt;br&gt;&lt;/span&gt;&lt;/div&gt;&lt;div&gt;&lt;br&gt;&lt;/div&gt;" style="shape=note;whiteSpace=wrap;html=1;backgroundOutline=1;darkOpacity=0.05;fillColor=#ffff88;strokeColor=none;horizontal=1;align=left;verticalAlign=top;" vertex="1" parent="1">
          <mxGeometry x="40" y="1800" width="350" height="140" as="geometry" />
        </mxCell>
        <mxCell id="aGrZsIu07CaAuVC8-_KM-40" value="P0" style="rounded=0;whiteSpace=wrap;html=1;align=center;verticalAlign=top;" vertex="1" parent="1">
          <mxGeometry x="237.5" y="1200" width="242.5" height="140" as="geometry" />
        </mxCell>
        <mxCell id="aGrZsIu07CaAuVC8-_KM-41" value="P1" style="rounded=0;whiteSpace=wrap;html=1;align=center;verticalAlign=top;" vertex="1" parent="1">
          <mxGeometry x="237.5" y="1400" width="242.5" height="140" as="geometry" />
        </mxCell>
        <mxCell id="aGrZsIu07CaAuVC8-_KM-71" style="rounded=0;orthogonalLoop=1;jettySize=auto;html=1;entryX=0;entryY=0.25;entryDx=0;entryDy=0;" edge="1" parent="1" source="aGrZsIu07CaAuVC8-_KM-42" target="aGrZsIu07CaAuVC8-_KM-40">
          <mxGeometry relative="1" as="geometry" />
        </mxCell>
        <mxCell id="aGrZsIu07CaAuVC8-_KM-42" value="producer" style="ellipse;whiteSpace=wrap;html=1;" vertex="1" parent="1">
          <mxGeometry x="40" y="1240" width="80" height="40" as="geometry" />
        </mxCell>
        <mxCell id="aGrZsIu07CaAuVC8-_KM-43" value="producer" style="ellipse;whiteSpace=wrap;html=1;" vertex="1" parent="1">
          <mxGeometry x="40" y="1450" width="80" height="40" as="geometry" />
        </mxCell>
        <mxCell id="aGrZsIu07CaAuVC8-_KM-72" style="edgeStyle=orthogonalEdgeStyle;curved=1;rounded=0;orthogonalLoop=1;jettySize=auto;html=1;entryX=0;entryY=0.25;entryDx=0;entryDy=0;" edge="1" parent="1" source="aGrZsIu07CaAuVC8-_KM-44" target="aGrZsIu07CaAuVC8-_KM-41">
          <mxGeometry relative="1" as="geometry" />
        </mxCell>
        <mxCell id="aGrZsIu07CaAuVC8-_KM-44" value="producer" style="ellipse;whiteSpace=wrap;html=1;" vertex="1" parent="1">
          <mxGeometry x="40" y="1340" width="80" height="40" as="geometry" />
        </mxCell>
        <mxCell id="aGrZsIu07CaAuVC8-_KM-45" value="3" style="rounded=0;whiteSpace=wrap;html=1;align=center;verticalAlign=middle;" vertex="1" parent="1">
          <mxGeometry x="232" y="1260" width="42" height="40" as="geometry" />
        </mxCell>
        <mxCell id="aGrZsIu07CaAuVC8-_KM-46" value="B" style="rounded=0;whiteSpace=wrap;html=1;align=center;verticalAlign=middle;fillColor=#cce5ff;strokeColor=#36393d;" vertex="1" parent="1">
          <mxGeometry x="232" y="1300" width="42" height="40" as="geometry" />
        </mxCell>
        <mxCell id="aGrZsIu07CaAuVC8-_KM-47" value="3" style="rounded=0;whiteSpace=wrap;html=1;align=center;verticalAlign=middle;" vertex="1" parent="1">
          <mxGeometry x="274" y="1260" width="42" height="40" as="geometry" />
        </mxCell>
        <mxCell id="aGrZsIu07CaAuVC8-_KM-48" value="A" style="rounded=0;whiteSpace=wrap;html=1;align=center;verticalAlign=middle;fillColor=#ffff88;strokeColor=#36393d;" vertex="1" parent="1">
          <mxGeometry x="274" y="1300" width="42" height="40" as="geometry" />
        </mxCell>
        <mxCell id="aGrZsIu07CaAuVC8-_KM-49" value="2" style="rounded=0;whiteSpace=wrap;html=1;align=center;verticalAlign=middle;" vertex="1" parent="1">
          <mxGeometry x="316" y="1260" width="42" height="40" as="geometry" />
        </mxCell>
        <mxCell id="aGrZsIu07CaAuVC8-_KM-50" value="B" style="rounded=0;whiteSpace=wrap;html=1;align=center;verticalAlign=middle;fillColor=#cce5ff;strokeColor=#36393d;" vertex="1" parent="1">
          <mxGeometry x="316" y="1300" width="42" height="40" as="geometry" />
        </mxCell>
        <mxCell id="aGrZsIu07CaAuVC8-_KM-51" value="2" style="rounded=0;whiteSpace=wrap;html=1;align=center;verticalAlign=middle;" vertex="1" parent="1">
          <mxGeometry x="359" y="1260" width="42" height="40" as="geometry" />
        </mxCell>
        <mxCell id="aGrZsIu07CaAuVC8-_KM-52" value="A" style="rounded=0;whiteSpace=wrap;html=1;align=center;verticalAlign=middle;fillColor=#ffff88;strokeColor=#36393d;" vertex="1" parent="1">
          <mxGeometry x="359" y="1300" width="42" height="40" as="geometry" />
        </mxCell>
        <mxCell id="aGrZsIu07CaAuVC8-_KM-53" value="1" style="rounded=0;whiteSpace=wrap;html=1;align=center;verticalAlign=middle;" vertex="1" parent="1">
          <mxGeometry x="401" y="1260" width="42" height="40" as="geometry" />
        </mxCell>
        <mxCell id="aGrZsIu07CaAuVC8-_KM-54" value="B" style="rounded=0;whiteSpace=wrap;html=1;align=center;verticalAlign=middle;fillColor=#cce5ff;strokeColor=#36393d;" vertex="1" parent="1">
          <mxGeometry x="401" y="1300" width="42" height="40" as="geometry" />
        </mxCell>
        <mxCell id="aGrZsIu07CaAuVC8-_KM-55" value="1" style="rounded=0;whiteSpace=wrap;html=1;align=center;verticalAlign=middle;" vertex="1" parent="1">
          <mxGeometry x="443" y="1260" width="42" height="40" as="geometry" />
        </mxCell>
        <mxCell id="aGrZsIu07CaAuVC8-_KM-56" value="A" style="rounded=0;whiteSpace=wrap;html=1;align=center;verticalAlign=middle;fillColor=#ffff88;strokeColor=#36393d;" vertex="1" parent="1">
          <mxGeometry x="443" y="1300" width="42" height="40" as="geometry" />
        </mxCell>
        <mxCell id="aGrZsIu07CaAuVC8-_KM-59" value="3" style="rounded=0;whiteSpace=wrap;html=1;align=center;verticalAlign=middle;" vertex="1" parent="1">
          <mxGeometry x="232" y="1460" width="42" height="40" as="geometry" />
        </mxCell>
        <mxCell id="aGrZsIu07CaAuVC8-_KM-60" value="B" style="rounded=0;whiteSpace=wrap;html=1;align=center;verticalAlign=middle;fillColor=#cce5ff;strokeColor=#36393d;" vertex="1" parent="1">
          <mxGeometry x="232" y="1500" width="42" height="40" as="geometry" />
        </mxCell>
        <mxCell id="aGrZsIu07CaAuVC8-_KM-61" value="3" style="rounded=0;whiteSpace=wrap;html=1;align=center;verticalAlign=middle;" vertex="1" parent="1">
          <mxGeometry x="274" y="1460" width="42" height="40" as="geometry" />
        </mxCell>
        <mxCell id="aGrZsIu07CaAuVC8-_KM-62" value="A" style="rounded=0;whiteSpace=wrap;html=1;align=center;verticalAlign=middle;fillColor=#ffff88;strokeColor=#36393d;" vertex="1" parent="1">
          <mxGeometry x="274" y="1500" width="42" height="40" as="geometry" />
        </mxCell>
        <mxCell id="aGrZsIu07CaAuVC8-_KM-63" value="2" style="rounded=0;whiteSpace=wrap;html=1;align=center;verticalAlign=middle;" vertex="1" parent="1">
          <mxGeometry x="316" y="1460" width="42" height="40" as="geometry" />
        </mxCell>
        <mxCell id="aGrZsIu07CaAuVC8-_KM-64" value="B" style="rounded=0;whiteSpace=wrap;html=1;align=center;verticalAlign=middle;fillColor=#cce5ff;strokeColor=#36393d;" vertex="1" parent="1">
          <mxGeometry x="316" y="1500" width="42" height="40" as="geometry" />
        </mxCell>
        <mxCell id="aGrZsIu07CaAuVC8-_KM-65" value="2" style="rounded=0;whiteSpace=wrap;html=1;align=center;verticalAlign=middle;" vertex="1" parent="1">
          <mxGeometry x="359" y="1460" width="42" height="40" as="geometry" />
        </mxCell>
        <mxCell id="aGrZsIu07CaAuVC8-_KM-66" value="A" style="rounded=0;whiteSpace=wrap;html=1;align=center;verticalAlign=middle;fillColor=#ffff88;strokeColor=#36393d;" vertex="1" parent="1">
          <mxGeometry x="359" y="1500" width="42" height="40" as="geometry" />
        </mxCell>
        <mxCell id="aGrZsIu07CaAuVC8-_KM-67" value="1" style="rounded=0;whiteSpace=wrap;html=1;align=center;verticalAlign=middle;" vertex="1" parent="1">
          <mxGeometry x="401" y="1460" width="42" height="40" as="geometry" />
        </mxCell>
        <mxCell id="aGrZsIu07CaAuVC8-_KM-68" value="B" style="rounded=0;whiteSpace=wrap;html=1;align=center;verticalAlign=middle;fillColor=#cce5ff;strokeColor=#36393d;" vertex="1" parent="1">
          <mxGeometry x="401" y="1500" width="42" height="40" as="geometry" />
        </mxCell>
        <mxCell id="aGrZsIu07CaAuVC8-_KM-69" value="1" style="rounded=0;whiteSpace=wrap;html=1;align=center;verticalAlign=middle;" vertex="1" parent="1">
          <mxGeometry x="443" y="1460" width="42" height="40" as="geometry" />
        </mxCell>
        <mxCell id="aGrZsIu07CaAuVC8-_KM-70" value="A" style="rounded=0;whiteSpace=wrap;html=1;align=center;verticalAlign=middle;fillColor=#ffff88;strokeColor=#36393d;" vertex="1" parent="1">
          <mxGeometry x="443" y="1500" width="42" height="40" as="geometry" />
        </mxCell>
        <mxCell id="aGrZsIu07CaAuVC8-_KM-73" value="&lt;div&gt;A消息的有序性怎么保证。&lt;/div&gt;&lt;div&gt;kafka可以保证分区内，同一个Key消息的有序性，但是producer要保证发送消息是有序的，一个producer进行发送。&lt;/div&gt;" style="shape=note;whiteSpace=wrap;html=1;backgroundOutline=1;darkOpacity=0.05;fillColor=#ffff88;strokeColor=none;horizontal=1;align=left;verticalAlign=top;" vertex="1" parent="1">
          <mxGeometry x="40" y="1590" width="350" height="140" as="geometry" />
        </mxCell>
      </root>
    </mxGraphModel>
  </diagram>
</mxfile>
